<?xml version="1.0" encoding="UTF-8" standalone="no"?>
<svg
   xmlns:dc="http://purl.org/dc/elements/1.1/"
   xmlns:cc="http://creativecommons.org/ns#"
   xmlns:rdf="http://www.w3.org/1999/02/22-rdf-syntax-ns#"
   xmlns:svg="http://www.w3.org/2000/svg"
   xmlns="http://www.w3.org/2000/svg"
   xmlns:sodipodi="http://sodipodi.sourceforge.net/DTD/sodipodi-0.dtd"
   xmlns:inkscape="http://www.inkscape.org/namespaces/inkscape"
   inkscape:version="1.0.1 (3bc2e813f5, 2020-09-07)"
   sodipodi:docname="Spacedeck.svg"
   id="svg12"
   xml:space="preserve"
   viewBox="0 0 376.04428 90.433471"
   y="0px"
   x="0px"
   version="1.1"
   fill="#00a3d3"
   width="376.04428"
   height="90.433472"><sodipodi:namedview
     inkscape:document-rotation="0"
     pagecolor="#ffffff"
     bordercolor="#666666"
     borderopacity="1"
     objecttolerance="10"
     gridtolerance="10"
     guidetolerance="10"
     inkscape:pageopacity="0"
     inkscape:pageshadow="2"
     inkscape:window-width="1920"
     inkscape:window-height="1019"
     id="namedview10"
     showgrid="false"
     inkscape:zoom="2.93"
     inkscape:cx="215.0232"
     inkscape:cy="19.996628"
     inkscape:window-x="0"
     inkscape:window-y="32"
     inkscape:window-maximized="1"
     inkscape:current-layer="svg12" /><metadata
     id="metadata18"><rdf:RDF><cc:Work
         rdf:about=""><dc:format>image/svg+xml</dc:format><dc:type
           rdf:resource="http://purl.org/dc/dcmitype/StillImage" /><dc:title></dc:title></cc:Work></rdf:RDF></metadata><defs
     id="defs16"><rect
       x="103.82408"
       y="22.441263"
       width="233.05298"
       height="68.907661"
       id="rect1480" /><rect
       x="105.61219"
       y="9.0322132"
       width="208.49744"
       height="85.73774"
       id="rect837" /></defs><text
     xml:space="preserve"
     id="text835"
     style="font-style:normal;font-weight:normal;font-size:40px;line-height:1.25;font-family:sans-serif;letter-spacing:0px;word-spacing:0px;white-space:pre;shape-inside:url(#rect837);fill:#000000;fill-opacity:1;stroke:none;"
     transform="translate(-19.309446,2.5884676)" /><g
     id="g4"
     transform="translate(-9,-8.5)"><rect
       x="86.800003"
       y="49.599998"
       width="0.1"
       height="0.30000001"
       id="rect2" /></g><g
     id="g8"
     transform="translate(-9,-8.5)"><path
       d="m 25.1,62.2 h -11 C 11.3,62.2 9,59.9 9,57 V 13.6 C 9,10.8 11.3,8.5 14.1,8.5 H 57 c 2.8,0 5.1,2.3 5.1,5.1 v 11.1 h -3 V 13.6 c 0,-1.2 -1,-2.1 -2.1,-2.1 H 14.1 c -1.2,0 -2.1,1 -2.1,2.1 V 57 c 0,1.2 1,2.1 2.1,2.1 h 11 z"
       id="path6" /></g><g
     id="g12"
     transform="translate(-9,-8.5)"><path
       d="m 37.9,77 h -9.3 c -2.8,0 -5.1,-2.3 -5.1,-5.1 V 28.3 c 0,-2.8 2.3,-5.1 5.1,-5.1 h 43 c 2.8,0 5.1,2.3 5.1,5.1 v 9.8 h -3 v -9.8 c 0,-1.2 -1,-2.1 -2.1,-2.1 h -43 c -1.2,0 -2.1,1 -2.1,2.1 v 43.5 c 0,1.2 1,2.1 2.1,2.1 h 9.3 z"
       id="path10" /></g><g
     id="g18"
     transform="translate(-9,-8.5)"><g
       id="g16"><path
         d="M 85.9,91.5 H 41.6 c -2.8,0 -5.1,-2.3 -5.1,-5.1 V 41.5 c 0,-2.8 2.3,-5.1 5.1,-5.1 h 44.3 c 2.8,0 5.1,2.3 5.1,5.1 v 44.9 c 0,2.8 -2.3,5.1 -5.1,5.1 z"
         id="path14" /></g></g><g
     aria-label="kitsSpace"
     id="text1476"
     style="font-style:normal;font-weight:normal;font-size:70.8773px;line-height:1.25;font-family:sans-serif;letter-spacing:0px;word-spacing:0px;fill:#000000;fill-opacity:1;stroke:none;stroke-width:1.77193"><g
       aria-label="Spacedeck"
       id="text854"
       style="font-style:normal;font-variant:normal;font-weight:normal;font-stretch:normal;font-size:60.064px;line-height:1.25;font-family:'Fira Sans';-inkscape-font-specification:'Fira Sans';letter-spacing:0px;word-spacing:0px;fill:#000000;fill-opacity:1;stroke:none;stroke-width:1.99555"><path
         d="m 104.3756,35.534976 q 4.14441,0 7.08755,1.20128 2.94314,1.141216 5.70608,3.60384 l -3.12333,3.483712 q -2.34249,-1.861984 -4.62493,-2.70288 -2.22236,-0.90096 -4.80512,-0.90096 -3.24345,0 -5.345693,1.5016 -2.10224,1.5016 -2.10224,4.384672 0,1.80192 0.720768,3.063264 0.720768,1.20128 2.642815,2.222368 1.98211,1.021088 5.70608,2.162304 3.90416,1.201279 6.48691,2.582751 2.58276,1.381472 4.14442,3.844096 1.62173,2.40256 1.62173,6.126528 0,3.60384 -1.80192,6.366784 -1.74186,2.762944 -5.10544,4.324608 -3.30352,1.561664 -7.86839,1.561664 -8.589149,0 -14.054972,-5.345696 l 3.123328,-3.483712 q 2.522687,2.042176 5.105439,3.123328 2.582755,1.021088 5.766145,1.021088 3.8441,0 6.36678,-1.861984 2.52269,-1.922048 2.52269,-5.525888 0,-2.042176 -0.78083,-3.363584 -0.78083,-1.381472 -2.70288,-2.462624 -1.86198,-1.081152 -5.46582,-2.162304 -6.366789,-1.922048 -9.309925,-4.624927 -2.943135,-2.70288 -2.943135,-7.327808 0,-3.123328 1.621727,-5.585952 1.681792,-2.462624 4.624928,-3.844096 3.003205,-1.381472 6.787235,-1.381472 z"
         style="stroke-width:1.99555"
         id="path894" /><path
         d="m 140.95446,45.265344 q 6.06647,0 8.88947,4.324608 2.82301,4.324607 2.82301,12.192991 0,7.447936 -3.24345,12.0128 -3.24346,4.564864 -9.1898,4.564864 -5.28563,0 -8.28883,-3.60384 v 15.016 l -5.52589,0.660704 V 45.986112 h 4.74506 l 0.42045,4.264544 q 1.74185,-2.40256 4.20448,-3.663904 2.46262,-1.321408 5.1655,-1.321408 z m -2.04217,28.590463 q 7.80832,0 7.80832,-12.072864 0,-12.132927 -7.14762,-12.132927 -2.3425,0 -4.26454,1.381472 -1.92205,1.381472 -3.36359,3.543775 v 15.436448 q 1.20128,1.861984 3.0032,2.883072 1.80192,0.961024 3.96423,0.961024 z"
         style="stroke-width:1.99555"
         id="path896" /><path
         d="m 182.51859,70.251967 q 0,1.922048 0.66071,2.883072 0.6607,0.90096 1.98211,1.381472 l -1.26134,3.844096 q -2.46263,-0.30032 -3.96423,-1.381472 -1.5016,-1.081152 -2.22236,-3.363584 -3.1834,4.745056 -9.43005,4.745056 -4.68499,0 -7.38787,-2.642816 -2.70288,-2.642816 -2.70288,-6.90736 0,-5.045376 3.60384,-7.748256 3.6639,-2.70288 10.331,-2.70288 h 4.86519 v -2.342496 q 0,-3.363583 -1.62173,-4.805119 -1.62173,-1.441536 -4.98531,-1.441536 -3.48371,0 -8.52909,1.681792 l -1.38147,-4.024288 q 5.88627,-2.162304 10.93165,-2.162304 5.58595,0 8.34889,2.762944 2.76294,2.70288 2.76294,7.748255 z m -12.97382,3.964224 q 4.74506,0 7.44794,-4.925248 v -7.267744 h -4.14442 q -8.76934,0 -8.76934,6.486912 0,2.823008 1.38147,4.264544 1.38147,1.441536 4.08435,1.441536 z"
         style="stroke-width:1.99555"
         id="path898" /><path
         d="m 205.40296,45.265344 q 2.823,0 5.1655,0.840896 2.3425,0.780832 4.5048,2.582752 l -2.64282,3.483712 q -1.68179,-1.20128 -3.30352,-1.741856 -1.56166,-0.60064 -3.48371,-0.60064 -3.84409,0 -6.0064,3.063264 -2.10224,3.063263 -2.10224,9.069663 0,6.0064 2.10224,8.889472 2.10224,2.823008 6.0064,2.823008 1.86199,0 3.42365,-0.540576 1.56166,-0.60064 3.48371,-1.861984 l 2.52269,3.60384 q -4.32461,3.483712 -9.6703,3.483712 -6.42685,0 -10.15082,-4.324608 -3.6639,-4.324608 -3.6639,-11.952736 0,-5.045376 1.68179,-8.829407 1.68179,-3.784032 4.74505,-5.886272 3.12333,-2.10224 7.38788,-2.10224 z"
         style="stroke-width:1.99555"
         id="path900" /><path
         d="m 245.58561,60.881983 q 0,1.381472 -0.12013,2.823008 h -20.1815 q 0.36038,5.225568 2.64282,7.688192 2.28243,2.462624 5.88627,2.462624 2.28243,0 4.20448,-0.660704 1.92205,-0.660704 4.02429,-2.10224 l 2.40256,3.30352 q -5.04538,3.964224 -11.05178,3.964224 -6.60704,0 -10.33101,-4.324608 -3.6639,-4.324608 -3.6639,-11.892672 0,-4.925248 1.56166,-8.709279 1.62173,-3.844096 4.56487,-6.0064 3.0032,-2.162304 7.02748,-2.162304 6.30672,0 9.67031,4.144416 3.36358,4.144416 3.36358,11.472223 z m -5.46582,-1.621728 q 0,-4.684992 -1.86199,-7.147615 -1.86198,-2.462624 -5.58595,-2.462624 -6.78723,0 -7.38787,9.970623 h 14.83581 z"
         style="stroke-width:1.99555"
         id="path902" /><path
         d="m 278.56067,33.252544 v 44.387295 h -4.86519 l -0.54057,-4.384672 q -1.56167,2.40256 -3.90416,3.784032 -2.3425,1.321408 -5.22557,1.321408 -5.64602,0 -8.82941,-4.444736 -3.12333,-4.444736 -3.12333,-11.952736 0,-4.865184 1.5016,-8.649215 1.5016,-3.784032 4.32461,-5.886272 2.82301,-2.162304 6.60704,-2.162304 4.86519,0 8.52909,3.90416 V 32.59184 Z m -13.33421,40.723391 q 2.52269,0 4.32461,-1.141216 1.80192,-1.20128 3.48371,-3.543776 V 53.794431 q -1.56166,-2.042175 -3.36358,-3.063263 -1.74186,-1.081152 -3.96423,-1.081152 -3.6639,0 -5.70608,3.063264 -1.98211,3.063263 -1.98211,9.129727 0,6.126528 1.86198,9.129728 1.86199,3.0032 5.3457,3.0032 z"
         style="stroke-width:1.99555"
         id="path904" /><path
         d="m 313.698,60.881983 q 0,1.381472 -0.12013,2.823008 h -20.1815 q 0.36038,5.225568 2.64281,7.688192 2.28244,2.462624 5.88628,2.462624 2.28243,0 4.20448,-0.660704 1.92204,-0.660704 4.02428,-2.10224 l 2.40256,3.30352 q -5.04537,3.964224 -11.05177,3.964224 -6.60704,0 -10.33101,-4.324608 -3.6639,-4.324608 -3.6639,-11.892672 0,-4.925248 1.56166,-8.709279 1.62173,-3.844096 4.56486,-6.0064 3.0032,-2.162304 7.02749,-2.162304 6.30672,0 9.67031,4.144416 3.36358,4.144416 3.36358,11.472223 z m -5.46582,-1.621728 q 0,-4.684992 -1.86199,-7.147615 -1.86198,-2.462624 -5.58595,-2.462624 -6.78723,0 -7.38787,9.970623 h 14.83581 z"
         style="stroke-width:1.99555"
         id="path906" /><path
         d="m 333.99956,45.265344 q 2.82301,0 5.1655,0.840896 2.3425,0.780832 4.5048,2.582752 l -2.64281,3.483712 q -1.68179,-1.20128 -3.30352,-1.741856 -1.56167,-0.60064 -3.48371,-0.60064 -3.8441,0 -6.0064,3.063264 -2.10224,3.063263 -2.10224,9.069663 0,6.0064 2.10224,8.889472 2.10224,2.823008 6.0064,2.823008 1.86198,0 3.42364,-0.540576 1.56167,-0.60064 3.48372,-1.861984 l 2.52268,3.60384 q -4.3246,3.483712 -9.6703,3.483712 -6.42685,0 -10.15082,-4.324608 -3.6639,-4.324608 -3.6639,-11.952736 0,-5.045376 1.68179,-8.829407 1.68179,-3.784032 4.74506,-5.886272 3.12333,-2.10224 7.38787,-2.10224 z"
         style="stroke-width:1.99555"
         id="path908" /><path
         d="m 356.52348,77.639839 h -5.52589 V 33.252544 l 5.52589,-0.660704 z m 6.54697,-17.658816 12.97383,17.658816 h -6.60704 L 356.88386,60.341407 368.53628,45.986112 h 6.18659 z"
         style="stroke-width:1.99555"
         id="path910" /></g></g><text
     xml:space="preserve"
     id="text1478"
     style="font-style:normal;font-weight:normal;font-size:40px;line-height:1.25;font-family:sans-serif;letter-spacing:0px;word-spacing:0px;white-space:pre;shape-inside:url(#rect1480);fill:#000000;fill-opacity:1;stroke:none;"
     transform="translate(-3.3930043,-1.4437943)" /></svg>
