<?xml version="1.0" encoding="UTF-8" standalone="no"?>
<svg
   xmlns:dc="http://purl.org/dc/elements/1.1/"
   xmlns:cc="http://creativecommons.org/ns#"
   xmlns:rdf="http://www.w3.org/1999/02/22-rdf-syntax-ns#"
   xmlns:svg="http://www.w3.org/2000/svg"
   xmlns="http://www.w3.org/2000/svg"
   xmlns:sodipodi="http://sodipodi.sourceforge.net/DTD/sodipodi-0.dtd"
   xmlns:inkscape="http://www.inkscape.org/namespaces/inkscape"
   inkscape:version="1.0.1 (3bc2e813f5, 2020-09-07)"
   sodipodi:docname="Spacedeck.svg"
   id="svg12"
   xml:space="preserve"
   viewBox="0 0 393.26483 92.811012"
   y="0px"
   x="0px"
   version="1.1"
   fill="#00a3d3"
   width="393.26483"
   height="92.811012"><sodipodi:namedview
     inkscape:document-rotation="0"
     pagecolor="#ffffff"
     bordercolor="#666666"
     borderopacity="1"
     objecttolerance="10"
     gridtolerance="10"
     guidetolerance="10"
     inkscape:pageopacity="0"
     inkscape:pageshadow="2"
     inkscape:window-width="1920"
     inkscape:window-height="1019"
     id="namedview10"
     showgrid="false"
     inkscape:zoom="2.93"
     inkscape:cx="182.67666"
     inkscape:cy="52.588468"
     inkscape:window-x="0"
     inkscape:window-y="32"
     inkscape:window-maximized="1"
     inkscape:current-layer="text1476" /><metadata
     id="metadata18"><rdf:RDF><cc:Work
         rdf:about=""><dc:format>image/svg+xml</dc:format><dc:type
           rdf:resource="http://purl.org/dc/dcmitype/StillImage" /><dc:title></dc:title></cc:Work></rdf:RDF></metadata><defs
     id="defs16"><rect
       x="103.82408"
       y="22.441263"
       width="233.05298"
       height="68.907661"
       id="rect1480" /><rect
       x="105.61219"
       y="9.0322132"
       width="208.49744"
       height="85.73774"
       id="rect837" /></defs><text
     xml:space="preserve"
     id="text835"
     style="font-style:normal;font-weight:normal;font-size:40px;line-height:1.25;font-family:sans-serif;letter-spacing:0px;word-spacing:0px;white-space:pre;shape-inside:url(#rect837);fill:#000000;fill-opacity:1;stroke:none;"
     transform="translate(-19.309446,2.5884676)" /><g
     id="g4"
     transform="translate(-9,-8.5)"><rect
       x="86.800003"
       y="49.599998"
       width="0.1"
       height="0.30000001"
       id="rect2" /></g><g
     id="g8"
     transform="translate(-9,-8.5)"><path
       d="m 25.1,62.2 h -11 C 11.3,62.2 9,59.9 9,57 V 13.6 C 9,10.8 11.3,8.5 14.1,8.5 H 57 c 2.8,0 5.1,2.3 5.1,5.1 v 11.1 h -3 V 13.6 c 0,-1.2 -1,-2.1 -2.1,-2.1 H 14.1 c -1.2,0 -2.1,1 -2.1,2.1 V 57 c 0,1.2 1,2.1 2.1,2.1 h 11 z"
       id="path6" /></g><g
     id="g12"
     transform="translate(-9,-8.5)"><path
       d="m 37.9,77 h -9.3 c -2.8,0 -5.1,-2.3 -5.1,-5.1 V 28.3 c 0,-2.8 2.3,-5.1 5.1,-5.1 h 43 c 2.8,0 5.1,2.3 5.1,5.1 v 9.8 h -3 v -9.8 c 0,-1.2 -1,-2.1 -2.1,-2.1 h -43 c -1.2,0 -2.1,1 -2.1,2.1 v 43.5 c 0,1.2 1,2.1 2.1,2.1 h 9.3 z"
       id="path10" /></g><g
     id="g18"
     transform="translate(-9,-8.5)"><g
       id="g16"><path
         d="M 85.9,91.5 H 41.6 c -2.8,0 -5.1,-2.3 -5.1,-5.1 V 41.5 c 0,-2.8 2.3,-5.1 5.1,-5.1 h 44.3 c 2.8,0 5.1,2.3 5.1,5.1 v 44.9 c 0,2.8 -2.3,5.1 -5.1,5.1 z"
         id="path14" /></g></g><g
     aria-label="kitsSpace"
     id="text1476"
     style="font-style:normal;font-weight:normal;font-size:70.8773px;line-height:1.25;font-family:sans-serif;letter-spacing:0px;word-spacing:0px;fill:#000000;fill-opacity:1;stroke:none;stroke-width:1.77193"><path
       d="M 106.21266,77.714149 H 99.691953 V 25.335827 l 6.520707,-0.77965 z m 7.72563,-20.837925 15.3095,20.837925 h -7.79651 L 106.63793,57.301488 120.38812,40.361814 h 7.30037 z"
       style="font-style:normal;font-variant:normal;font-weight:normal;font-stretch:normal;font-family:'Fira Sans';-inkscape-font-specification:'Fira Sans';stroke-width:1.77193"
       id="path1502" /><path
       d="m 138.9579,22.429858 q 2.05544,0 3.33123,1.275792 1.27579,1.275791 1.27579,3.189478 0,1.913687 -1.27579,3.189478 -1.27579,1.204914 -3.33123,1.204914 -1.98457,0 -3.26036,-1.204914 -1.27579,-1.275791 -1.27579,-3.189478 0,-1.913687 1.27579,-3.189478 1.27579,-1.275792 3.26036,-1.275792 z m 3.33123,55.284291 h -6.52071 V 40.361814 h 6.52071 z"
       style="font-style:normal;font-variant:normal;font-weight:normal;font-stretch:normal;font-family:'Fira Sans';-inkscape-font-specification:'Fira Sans';stroke-width:1.77193"
       id="path1504" /><path
       d="m 174.39648,76.013094 q -3.68562,2.551583 -8.36352,2.551583 -4.74878,0 -7.44212,-2.693337 -2.62246,-2.764215 -2.62246,-7.938257 V 45.394102 h -6.52071 v -5.032288 h 6.52071 v -8.434398 l 6.52071,-0.77965 v 9.214048 h 8.85967 l -0.70878,5.032288 h -8.15089 v 22.255471 q 0,2.90597 0.99229,4.252638 1.06316,1.275792 3.47298,1.275792 2.1972,0 4.96141,-1.488424 z"
       style="font-style:normal;font-variant:normal;font-weight:normal;font-stretch:normal;font-family:'Fira Sans';-inkscape-font-specification:'Fira Sans';stroke-width:1.77193"
       id="path1506" /><path
       d="m 191.26514,39.511287 q 3.82738,0 6.8751,1.063159 3.04773,1.06316 5.81194,3.189478 l -2.76421,4.110884 q -2.55159,-1.630178 -4.89054,-2.409828 -2.26807,-0.779651 -4.81965,-0.779651 -3.18948,0 -5.03229,1.346669 -1.84281,1.275791 -1.84281,3.543865 0,2.268073 1.70105,3.543865 1.77194,1.275791 6.30808,2.480705 6.2372,1.559301 9.28493,4.252638 3.1186,2.693337 3.1186,7.371239 0,5.528429 -4.32352,8.434398 -4.25263,2.905969 -10.41896,2.905969 -8.50527,0 -14.10458,-4.890533 l 3.47299,-3.969129 q 4.74878,3.614742 10.48984,3.614742 3.68562,0 5.81194,-1.488423 2.19719,-1.559301 2.19719,-4.181761 0,-1.913687 -0.77965,-3.047723 -0.77965,-1.204914 -2.69334,-2.055442 -1.91368,-0.921405 -5.5993,-1.913687 -5.9537,-1.5593 -8.64703,-4.18176 -2.62246,-2.62246 -2.62246,-6.662466 0,-2.905969 1.70105,-5.24492 1.77193,-2.409828 4.81966,-3.68562 3.1186,-1.346668 6.94597,-1.346668 z"
       style="font-style:normal;font-variant:normal;font-weight:normal;font-stretch:normal;font-family:'Fira Sans';-inkscape-font-specification:'Fira Sans';stroke-width:1.77193"
       id="path1508" /><path
       d="m 226.63285,28.029165 q 4.89053,0 8.36352,1.417546 3.47299,1.346668 6.73334,4.252637 l -3.68562,4.110884 q -2.76421,-2.197197 -5.45755,-3.189479 -2.62246,-1.063159 -5.67018,-1.063159 -3.82738,0 -6.30808,1.771932 -2.48071,1.771933 -2.48071,5.174043 0,2.126319 0.85053,3.614742 0.85053,1.417546 3.1186,2.62246 2.33895,1.204914 6.73335,2.551583 4.60702,1.417546 7.65474,3.047723 3.04773,1.630178 4.89054,4.536147 1.91368,2.835092 1.91368,7.229485 0,4.252637 -2.12631,7.512993 -2.05545,3.260356 -6.02458,5.103165 -3.89825,1.84281 -9.28492,1.84281 -10.13545,0 -16.58529,-6.308079 l 3.68562,-4.110884 q 2.97685,2.409829 6.02457,3.68562 3.04773,1.204914 6.80422,1.204914 4.53615,0 7.513,-2.197196 2.97684,-2.268074 2.97684,-6.520712 0,-2.409828 -0.9214,-3.969128 -0.92141,-1.630178 -3.18948,-2.905969 -2.1972,-1.275792 -6.44984,-2.551583 -7.51299,-2.268073 -10.98598,-5.457552 -3.47298,-3.189478 -3.47298,-8.64703 0,-3.685619 1.91368,-6.591589 1.98457,-2.905969 5.45755,-4.536147 3.54387,-1.630177 8.00914,-1.630177 z"
       style="font-style:normal;font-variant:normal;font-weight:normal;font-stretch:normal;font-family:'Fira Sans';-inkscape-font-specification:'Fira Sans';stroke-width:1.77193"
       id="path1510" /><path
       d="m 269.79699,39.511287 q 7.1586,0 10.48984,5.103165 3.33123,5.103165 3.33123,14.388091 0,8.788785 -3.82737,14.17546 -3.82738,5.386674 -10.84423,5.386674 -6.2372,0 -9.78107,-4.252638 v 17.719324 l -6.52071,0.779651 v -52.4492 h 5.59931 l 0.49614,5.032288 q 2.05544,-2.835092 4.96141,-4.323515 2.90597,-1.5593 6.09545,-1.5593 z m -2.40983,33.737593 q 9.21405,0 9.21405,-14.246337 0,-14.317214 -8.4344,-14.317214 -2.76422,0 -5.03229,1.630178 -2.26807,1.630178 -3.96913,4.181761 v 18.215465 q 1.41755,2.197196 3.54387,3.40211 2.12632,1.134037 4.6779,1.134037 z"
       style="font-style:normal;font-variant:normal;font-weight:normal;font-stretch:normal;font-family:'Fira Sans';-inkscape-font-specification:'Fira Sans';stroke-width:1.77193"
       id="path1512" /><path
       d="m 318.8439,68.996242 q 0,2.268073 0.77965,3.40211 0.77965,1.06316 2.33895,1.630178 l -1.48842,4.536147 q -2.90597,-0.354386 -4.6779,-1.630178 -1.77193,-1.275791 -2.62246,-3.969128 -3.7565,5.599306 -11.12774,5.599306 -5.52843,0 -8.7179,-3.118601 -3.18948,-3.118601 -3.18948,-8.150889 0,-5.953693 4.25263,-9.143171 4.32352,-3.189479 12.1909,-3.189479 h 5.74106 v -2.764214 q 0,-3.969129 -1.91369,-5.670184 -1.91368,-1.701055 -5.88281,-1.701055 -4.11089,0 -10.06458,1.984564 l -1.63018,-4.748779 q 6.94598,-2.551582 12.89967,-2.551582 6.59159,0 9.85195,3.260355 3.26035,3.189479 3.26035,9.143172 z m -15.30949,4.677902 q 5.5993,0 8.78878,-5.811939 v -8.576153 h -4.89053 q -10.34809,0 -10.34809,7.654748 0,3.331233 1.63018,5.032288 1.63018,1.701056 4.81966,1.701056 z"
       style="font-style:normal;font-variant:normal;font-weight:normal;font-stretch:normal;font-family:'Fira Sans';-inkscape-font-specification:'Fira Sans';stroke-width:1.77193"
       id="path1514" /><path
       d="m 345.84812,39.511287 q 3.33124,0 6.09545,0.992282 2.76422,0.921405 5.3158,3.047724 l -3.1186,4.110883 q -1.98457,-1.417546 -3.89825,-2.055442 -1.84281,-0.708773 -4.11089,-0.708773 -4.53614,0 -7.08773,3.614742 -2.4807,3.614742 -2.4807,10.702472 0,7.08773 2.4807,10.48984 2.48071,3.331233 7.08773,3.331233 2.1972,0 4.04001,-0.637896 1.84281,-0.708773 4.11088,-2.197196 l 2.97685,4.252638 q -5.10317,4.110883 -11.41125,4.110883 -7.58387,0 -11.97826,-5.103165 -4.32351,-5.103166 -4.32351,-14.104582 0,-5.953693 1.98456,-10.418963 1.98456,-4.46527 5.59931,-6.945975 3.68562,-2.480705 8.7179,-2.480705 z"
       style="font-style:normal;font-variant:normal;font-weight:normal;font-stretch:normal;font-family:'Fira Sans';-inkscape-font-specification:'Fira Sans';stroke-width:1.77193"
       id="path1516" /><path
       d="m 393.26484,57.939384 q 0,1.630178 -0.14175,3.331233 h -23.81477 q 0.42526,6.166324 3.1186,9.072294 2.69333,2.905969 6.94597,2.905969 2.69334,0 4.96141,-0.77965 2.26808,-0.779651 4.74878,-2.480706 l 2.83509,3.898251 q -5.95369,4.677902 -13.04142,4.677902 -7.7965,0 -12.19089,-5.103165 -4.32352,-5.103166 -4.32352,-14.033705 0,-5.811938 1.84281,-10.277208 1.91369,-4.536147 5.38667,-7.08773 3.54387,-2.551582 8.29265,-2.551582 7.44211,0 11.41124,4.890533 3.96913,4.890534 3.96913,13.537564 z m -6.44983,-1.913687 q 0,-5.528429 -2.1972,-8.434399 -2.19719,-2.905969 -6.59159,-2.905969 -8.00913,0 -8.7179,11.765632 h 17.50669 z"
       style="font-style:normal;font-variant:normal;font-weight:normal;font-stretch:normal;font-family:'Fira Sans';-inkscape-font-specification:'Fira Sans';stroke-width:1.77193"
       id="path1518" /></g><text
     xml:space="preserve"
     id="text1478"
     style="font-style:normal;font-weight:normal;font-size:40px;line-height:1.25;font-family:sans-serif;letter-spacing:0px;word-spacing:0px;white-space:pre;shape-inside:url(#rect1480);fill:#000000;fill-opacity:1;stroke:none;"
     transform="translate(-3.3930043,-1.4437943)" /></svg>
